<svg width="229" height="80" viewBox="0 0 229 80" fill="none" xmlns="http://www.w3.org/2000/svg">
<g clip-path="url(#clip0_77_5485)">
<path d="M53.8334 43.3335C53.8334 52.5382 46.3715 60.0002 37.1667 60.0002C27.962 60.0002 20.5001 52.5382 20.5001 43.3335H7.16675C7.16675 59.902 20.5982 73.3335 37.1667 73.3335C53.7353 73.3335 67.1667 59.902 67.1667 43.3335C67.1667 26.765 53.7353 13.3335 37.1667 13.3335V26.6668C46.3715 26.6668 53.8334 34.1287 53.8334 43.3335Z" fill="#038041"/>
<path opacity="0.5" d="M17.1667 6.6665C17.1667 15.8713 9.70475 23.3332 0.5 23.3332V36.6665C17.0685 36.6665 30.5 23.235 30.5 6.6665H17.1667Z" fill="#038041"/>
<path d="M91.8795 24H103.52V28H96.2795V35.8H101.96V39.8H96.2795V52H91.8795V24ZM111.99 52.4C109.83 52.4 108.176 51.7867 107.03 50.56C105.883 49.3333 105.31 47.6 105.31 45.36V30.64C105.31 28.4 105.883 26.6667 107.03 25.44C108.176 24.2133 109.83 23.6 111.99 23.6C114.15 23.6 115.803 24.2133 116.95 25.44C118.096 26.6667 118.67 28.4 118.67 30.64V45.36C118.67 47.6 118.096 49.3333 116.95 50.56C115.803 51.7867 114.15 52.4 111.99 52.4ZM111.99 48.4C113.51 48.4 114.27 47.48 114.27 45.64V30.36C114.27 28.52 113.51 27.6 111.99 27.6C110.47 27.6 109.71 28.52 109.71 30.36V45.64C109.71 47.48 110.47 48.4 111.99 48.4ZM128.005 52.4C125.845 52.4 124.192 51.7867 123.045 50.56C121.898 49.3333 121.325 47.6 121.325 45.36V30.64C121.325 28.4 121.898 26.6667 123.045 25.44C124.192 24.2133 125.845 23.6 128.005 23.6C130.165 23.6 131.818 24.2133 132.965 25.44C134.112 26.6667 134.685 28.4 134.685 30.64V45.36C134.685 47.6 134.112 49.3333 132.965 50.56C131.818 51.7867 130.165 52.4 128.005 52.4ZM128.005 48.4C129.525 48.4 130.285 47.48 130.285 45.64V30.36C130.285 28.52 129.525 27.6 128.005 27.6C126.485 27.6 125.725 28.52 125.725 30.36V45.64C125.725 47.48 126.485 48.4 128.005 48.4ZM137.661 24H144.381C146.567 24 148.207 24.5867 149.301 25.76C150.394 26.9333 150.941 28.6533 150.941 30.92V45.08C150.941 47.3467 150.394 49.0667 149.301 50.24C148.207 51.4133 146.567 52 144.381 52H137.661V24ZM144.301 48C145.021 48 145.567 47.7867 145.941 47.36C146.341 46.9333 146.541 46.24 146.541 45.28V30.72C146.541 29.76 146.341 29.0667 145.941 28.64C145.567 28.2133 145.021 28 144.301 28H142.061V48H144.301ZM157.233 24H163.193L167.753 52H163.353L162.553 46.44V46.52H157.553L156.753 52H152.673L157.233 24ZM162.033 42.72L160.073 28.88H159.993L158.073 42.72H162.033ZM169.887 24H176.527C178.794 24 180.447 24.5333 181.487 25.6C182.527 26.64 183.047 28.2533 183.047 30.44V31.56C183.047 33 182.807 34.1733 182.327 35.08C181.874 35.9867 181.167 36.64 180.207 37.04V37.12C182.394 37.8667 183.487 39.8133 183.487 42.96V45.36C183.487 47.52 182.914 49.1733 181.767 50.32C180.647 51.44 178.994 52 176.807 52H169.887V24ZM176.007 35.4C176.887 35.4 177.541 35.1733 177.967 34.72C178.421 34.2667 178.647 33.5067 178.647 32.44V30.88C178.647 29.8667 178.461 29.1333 178.087 28.68C177.741 28.2267 177.181 28 176.407 28H174.287V35.4H176.007ZM176.807 48C177.581 48 178.154 47.8 178.527 47.4C178.901 46.9733 179.087 46.2533 179.087 45.24V42.8C179.087 41.52 178.861 40.64 178.407 40.16C177.981 39.6533 177.261 39.4 176.247 39.4H174.287V48H176.807ZM186.059 24H198.059V28H190.459V35.4H196.499V39.4H190.459V48H198.059V52H186.059V24ZM206.389 52.4C204.255 52.4 202.642 51.8 201.549 50.6C200.455 49.3733 199.909 47.6267 199.909 45.36V43.76H204.069V45.68C204.069 47.4933 204.829 48.4 206.349 48.4C207.095 48.4 207.655 48.1867 208.029 47.76C208.429 47.3067 208.629 46.5867 208.629 45.6C208.629 44.4267 208.362 43.4 207.829 42.52C207.295 41.6133 206.309 40.5333 204.869 39.28C203.055 37.68 201.789 36.24 201.069 34.96C200.349 33.6533 199.989 32.1867 199.989 30.56C199.989 28.3467 200.549 26.64 201.669 25.44C202.789 24.2133 204.415 23.6 206.549 23.6C208.655 23.6 210.242 24.2133 211.309 25.44C212.402 26.64 212.949 28.3733 212.949 30.64V31.8H208.789V30.36C208.789 29.4 208.602 28.7067 208.229 28.28C207.855 27.8267 207.309 27.6 206.589 27.6C205.122 27.6 204.389 28.4933 204.389 30.28C204.389 31.2933 204.655 32.24 205.189 33.12C205.749 34 206.749 35.0667 208.189 36.32C210.029 37.92 211.295 39.3733 211.989 40.68C212.682 41.9867 213.029 43.52 213.029 45.28C213.029 47.5733 212.455 49.3333 211.309 50.56C210.189 51.7867 208.549 52.4 206.389 52.4ZM218.991 28H214.391V24H227.991V28H223.391V52H218.991V28Z" fill="black"/>
</g>
<defs>
<clipPath id="clip0_77_5485">
<rect width="228.333" height="80" fill="white" transform="translate(0.5)"/>
</clipPath>
</defs>
</svg>
