<svg width="137" height="30" viewBox="0 0 137 30" fill="none" xmlns="http://www.w3.org/2000/svg">
<path d="M0.879502 0.999998H12.5195V5H5.2795V12.8H10.9595V16.8H5.2795V29H0.879502V0.999998ZM20.9895 29.4C18.8295 29.4 17.1762 28.7867 16.0295 27.56C14.8828 26.3333 14.3095 24.6 14.3095 22.36V7.64C14.3095 5.4 14.8828 3.66667 16.0295 2.44C17.1762 1.21333 18.8295 0.599998 20.9895 0.599998C23.1495 0.599998 24.8028 1.21333 25.9495 2.44C27.0962 3.66667 27.6695 5.4 27.6695 7.64V22.36C27.6695 24.6 27.0962 26.3333 25.9495 27.56C24.8028 28.7867 23.1495 29.4 20.9895 29.4ZM20.9895 25.4C22.5095 25.4 23.2695 24.48 23.2695 22.64V7.36C23.2695 5.52 22.5095 4.6 20.9895 4.6C19.4695 4.6 18.7095 5.52 18.7095 7.36V22.64C18.7095 24.48 19.4695 25.4 20.9895 25.4ZM37.0051 29.4C34.8451 29.4 33.1918 28.7867 32.0451 27.56C30.8985 26.3333 30.3251 24.6 30.3251 22.36V7.64C30.3251 5.4 30.8985 3.66667 32.0451 2.44C33.1918 1.21333 34.8451 0.599998 37.0051 0.599998C39.1651 0.599998 40.8185 1.21333 41.9651 2.44C43.1118 3.66667 43.6851 5.4 43.6851 7.64V22.36C43.6851 24.6 43.1118 26.3333 41.9651 27.56C40.8185 28.7867 39.1651 29.4 37.0051 29.4ZM37.0051 25.4C38.5251 25.4 39.2851 24.48 39.2851 22.64V7.36C39.2851 5.52 38.5251 4.6 37.0051 4.6C35.4851 4.6 34.7251 5.52 34.7251 7.36V22.64C34.7251 24.48 35.4851 25.4 37.0051 25.4ZM46.6608 0.999998H53.3808C55.5674 0.999998 57.2074 1.58667 58.3008 2.76C59.3941 3.93333 59.9408 5.65333 59.9408 7.92V22.08C59.9408 24.3467 59.3941 26.0667 58.3008 27.24C57.2074 28.4133 55.5674 29 53.3808 29H46.6608V0.999998ZM53.3008 25C54.0208 25 54.5674 24.7867 54.9408 24.36C55.3408 23.9333 55.5408 23.24 55.5408 22.28V7.72C55.5408 6.76 55.3408 6.06667 54.9408 5.64C54.5674 5.21333 54.0208 5 53.3008 5H51.0608V25H53.3008ZM66.2326 0.999998H72.1926L76.7526 29H72.3526L71.5526 23.44V23.52H66.5526L65.7526 29H61.6726L66.2326 0.999998ZM71.0326 19.72L69.0726 5.88H68.9926L67.0726 19.72H71.0326ZM78.8873 0.999998H85.5273C87.794 0.999998 89.4473 1.53333 90.4873 2.6C91.5273 3.64 92.0473 5.25333 92.0473 7.44V8.56C92.0473 10 91.8073 11.1733 91.3273 12.08C90.874 12.9867 90.1673 13.64 89.2073 14.04V14.12C91.394 14.8667 92.4873 16.8133 92.4873 19.96V22.36C92.4873 24.52 91.914 26.1733 90.7673 27.32C89.6473 28.44 87.994 29 85.8073 29H78.8873V0.999998ZM85.0073 12.4C85.8873 12.4 86.5406 12.1733 86.9673 11.72C87.4206 11.2667 87.6473 10.5067 87.6473 9.44V7.88C87.6473 6.86667 87.4606 6.13333 87.0873 5.68C86.7406 5.22667 86.1806 5 85.4073 5H83.2873V12.4H85.0073ZM85.8073 25C86.5806 25 87.154 24.8 87.5273 24.4C87.9006 23.9733 88.0873 23.2533 88.0873 22.24V19.8C88.0873 18.52 87.8606 17.64 87.4073 17.16C86.9806 16.6533 86.2606 16.4 85.2473 16.4H83.2873V25H85.8073ZM95.0592 0.999998H107.059V5H99.4592V12.4H105.499V16.4H99.4592V25H107.059V29H95.0592V0.999998ZM115.389 29.4C113.255 29.4 111.642 28.8 110.549 27.6C109.455 26.3733 108.909 24.6267 108.909 22.36V20.76H113.069V22.68C113.069 24.4933 113.829 25.4 115.349 25.4C116.095 25.4 116.655 25.1867 117.029 24.76C117.429 24.3067 117.629 23.5867 117.629 22.6C117.629 21.4267 117.362 20.4 116.829 19.52C116.295 18.6133 115.309 17.5333 113.869 16.28C112.055 14.68 110.789 13.24 110.069 11.96C109.349 10.6533 108.989 9.18667 108.989 7.56C108.989 5.34667 109.549 3.64 110.669 2.44C111.789 1.21333 113.415 0.599998 115.549 0.599998C117.655 0.599998 119.242 1.21333 120.309 2.44C121.402 3.64 121.949 5.37333 121.949 7.64V8.8H117.789V7.36C117.789 6.4 117.602 5.70667 117.229 5.28C116.855 4.82667 116.309 4.6 115.589 4.6C114.122 4.6 113.389 5.49333 113.389 7.28C113.389 8.29333 113.655 9.24 114.189 10.12C114.749 11 115.749 12.0667 117.189 13.32C119.029 14.92 120.295 16.3733 120.989 17.68C121.682 18.9867 122.029 20.52 122.029 22.28C122.029 24.5733 121.455 26.3333 120.309 27.56C119.189 28.7867 117.549 29.4 115.389 29.4ZM127.991 5H123.391V0.999998H136.991V5H132.391V29H127.991V5Z" fill="black"/>
</svg>
