<svg width="15" height="22" viewBox="0 0 15 22" fill="none" xmlns="http://www.w3.org/2000/svg">
<path d="M15 7.62491C15 6.17353 14.5788 4.75333 13.7877 3.53656C12.9965 2.31979 11.8692 1.35872 10.5427 0.769917C9.21608 0.18111 7.74716 -0.0101391 6.31404 0.219365C4.88092 0.448869 3.54518 1.08927 2.46881 2.06289C1.39245 3.03651 0.621702 4.30153 0.250054 5.70452C-0.121594 7.10751 -0.0781773 8.58819 0.375038 9.96699C0.828254 11.3458 1.6718 12.5635 2.80336 13.4724C3.93493 14.3812 5.3059 14.9423 6.75 15.0874V17.3749H3.75C3.55109 17.3749 3.36032 17.4539 3.21967 17.5946C3.07902 17.7352 3 17.926 3 18.1249C3 18.3238 3.07902 18.5146 3.21967 18.6552C3.36032 18.7959 3.55109 18.8749 3.75 18.8749H6.75V21.1249C6.75 21.3238 6.82902 21.5146 6.96967 21.6552C7.11032 21.7959 7.30109 21.8749 7.5 21.8749C7.69891 21.8749 7.88968 21.7959 8.03033 21.6552C8.17098 21.5146 8.25 21.3238 8.25 21.1249V18.8749H11.25C11.4489 18.8749 11.6397 18.7959 11.7803 18.6552C11.921 18.5146 12 18.3238 12 18.1249C12 17.926 11.921 17.7352 11.7803 17.5946C11.6397 17.4539 11.4489 17.3749 11.25 17.3749H8.25V15.0874C10.0991 14.8993 11.8127 14.0321 13.0595 12.6537C14.3063 11.2753 14.9977 9.48354 15 7.62491ZM1.5 7.62491C1.5 6.43822 1.85189 5.27818 2.51118 4.29149C3.17047 3.30479 4.10754 2.53576 5.2039 2.08163C6.30026 1.62751 7.50666 1.50869 8.67054 1.7402C9.83443 1.97171 10.9035 2.54315 11.7426 3.38227C12.5818 4.22138 13.1532 5.29048 13.3847 6.45437C13.6162 7.61825 13.4974 8.82465 13.0433 9.92101C12.5892 11.0174 11.8201 11.9544 10.8334 12.6137C9.84673 13.273 8.68669 13.6249 7.5 13.6249C5.90923 13.6232 4.38412 12.9905 3.25928 11.8656C2.13444 10.7408 1.50174 9.21568 1.5 7.62491Z" fill="#090909"/>
</svg>
