<svg width="23" height="18" viewBox="0 0 23 18" fill="none" xmlns="http://www.w3.org/2000/svg">
<path d="M4.30499 0.245444C4.23913 0.1712 4.15918 0.110767 4.06979 0.0676472C3.9804 0.0245275 3.88334 -0.000421266 3.78423 -0.00575291C3.68513 -0.0110845 3.58595 0.00330681 3.49245 0.0365872C3.39895 0.0698676 3.31298 0.121375 3.23953 0.188124C3.16608 0.254873 3.10661 0.335537 3.06457 0.425439C3.02252 0.515341 2.99874 0.612694 2.9946 0.711856C2.99045 0.811017 3.00603 0.910015 3.04043 1.00311C3.07483 1.09621 3.12737 1.18155 3.19499 1.25419L4.99874 3.23888C1.59374 5.32857 0.129366 8.54982 0.0646785 8.69607C0.0220346 8.79199 0 8.89579 0 9.00076C0 9.10573 0.0220346 9.20953 0.0646785 9.30544C0.097491 9.37951 0.891554 11.1401 2.65687 12.9054C5.00905 15.2567 7.97999 16.4998 11.25 16.4998C12.9306 16.5094 14.5942 16.1634 16.1316 15.4845L18.1941 17.7542C18.2599 17.8284 18.3399 17.8889 18.4293 17.932C18.5186 17.9751 18.6157 18.0001 18.7148 18.0054C18.8139 18.0107 18.9131 17.9963 19.0066 17.9631C19.1001 17.9298 19.1861 17.8783 19.2595 17.8115C19.333 17.7448 19.3924 17.6641 19.4345 17.5742C19.4765 17.4843 19.5003 17.3869 19.5044 17.2878C19.5086 17.1886 19.493 17.0896 19.4586 16.9965C19.4242 16.9034 19.3717 16.8181 19.3041 16.7454L4.30499 0.245444ZM8.74218 7.35544L12.6487 11.6539C12.0605 11.9634 11.386 12.0687 10.7314 11.9534C10.0768 11.838 9.47896 11.5085 9.03189 11.0166C8.58481 10.5247 8.31377 9.89818 8.26134 9.23552C8.2089 8.57286 8.37803 7.91156 8.74218 7.35544ZM11.25 14.9998C8.36437 14.9998 5.84343 13.9508 3.75655 11.8826C2.89997 11.0314 2.17145 10.0603 1.59374 8.99982C2.03343 8.17576 3.43687 5.86951 6.0328 4.37044L7.7203 6.22201C7.06699 7.05873 6.73052 8.09948 6.77036 9.16029C6.81021 10.2211 7.22379 11.2337 7.93802 12.019C8.65225 12.8044 9.62114 13.312 10.6734 13.4521C11.7257 13.5921 12.7936 13.3557 13.6884 12.7845L15.0694 14.3033C13.8506 14.7708 12.5553 15.0071 11.25 14.9998ZM11.8125 6.05326C11.6171 6.01596 11.4444 5.90256 11.3326 5.73799C11.2208 5.57343 11.1789 5.37119 11.2162 5.17576C11.2535 4.98032 11.3669 4.80771 11.5315 4.6959C11.6961 4.58408 11.8983 4.54221 12.0937 4.57951C13.0496 4.76482 13.92 5.25418 14.575 5.97459C15.23 6.695 15.6346 7.60786 15.7284 8.57701C15.7469 8.77505 15.686 8.97233 15.5591 9.12547C15.4322 9.2786 15.2496 9.37504 15.0516 9.39357C15.0281 9.39495 15.0047 9.39495 14.9812 9.39357C14.7938 9.39437 14.6128 9.32495 14.474 9.19897C14.3352 9.07299 14.2486 8.8996 14.2312 8.71294C14.1681 8.06831 13.8986 7.46127 13.4628 6.98208C13.0271 6.50288 12.4482 6.17713 11.8125 6.05326ZM22.4325 9.30544C22.3931 9.39357 21.4434 11.4964 19.305 13.4117C19.2319 13.4792 19.1461 13.5315 19.0527 13.5656C18.9592 13.5996 18.8599 13.6148 18.7605 13.6101C18.6611 13.6053 18.5636 13.5809 18.4738 13.5382C18.3839 13.4954 18.3035 13.4352 18.2371 13.3611C18.1708 13.287 18.1198 13.2004 18.0873 13.1064C18.0547 13.0124 18.0412 12.9128 18.0475 12.8135C18.0537 12.7142 18.0797 12.6172 18.1239 12.528C18.168 12.4388 18.2295 12.3594 18.3047 12.2942C19.3538 11.3516 20.2351 10.2377 20.9109 8.99982C20.3319 7.93836 19.6018 6.96665 18.7434 6.11513C16.6566 4.04888 14.1356 2.99982 11.25 2.99982C10.642 2.99908 10.0349 3.04831 9.43499 3.14701C9.33743 3.16426 9.23741 3.16201 9.14073 3.14039C9.04404 3.11877 8.95259 3.07821 8.87167 3.02105C8.79074 2.96388 8.72195 2.89125 8.66925 2.80735C8.61656 2.72345 8.58101 2.62994 8.56466 2.53222C8.54832 2.4345 8.55149 2.33451 8.57401 2.23803C8.59652 2.14155 8.63793 2.05048 8.69584 1.97009C8.75375 1.8897 8.82702 1.82158 8.9114 1.76967C8.99579 1.71775 9.08963 1.68307 9.18749 1.66763C9.86921 1.55507 10.559 1.49894 11.25 1.49982C14.52 1.49982 17.4909 2.74294 19.8431 5.09513C21.6084 6.86044 22.4025 8.62201 22.4353 8.69607C22.4779 8.79199 22.5 8.89579 22.5 9.00076C22.5 9.10573 22.4779 9.20953 22.4353 9.30544H22.4325Z" fill="#090909"/>
</svg>
