<svg width="266" height="91" viewBox="0 0 266 91" fill="none" xmlns="http://www.w3.org/2000/svg">
<rect width="54" height="76.5" transform="translate(49.45 7.25)" fill="#85BB2F"/>
<path d="M64.25 26.7952H77.9012C81.3572 26.7952 84.0644 27.736 86.0228 29.6176C87.9812 31.4992 88.9604 34.0144 88.9604 37.1632C88.9604 39.5824 88.3652 41.4832 87.1748 42.8656C86.0228 44.248 84.5252 45.2272 82.682 45.8032V45.976C84.9476 46.5136 86.81 47.5312 88.2692 49.0288C89.7284 50.488 90.458 52.6192 90.458 55.4224C90.458 57.0352 90.1892 58.552 89.6516 59.9728C89.114 61.3936 88.346 62.6224 87.3476 63.6592C86.3876 64.696 85.2356 65.5216 83.8916 66.136C82.586 66.712 81.1652 67 79.6292 67H64.25V26.7952ZM78.1892 62.7952C80.4164 62.7952 82.1636 62.296 83.4308 61.2976C84.698 60.2992 85.3316 58.7632 85.3316 56.6896V54.328C85.3316 52.2928 84.698 50.776 83.4308 49.7776C82.1636 48.7408 80.4164 48.2224 78.1892 48.2224H69.0884V62.7952H78.1892ZM77.3828 44.248C79.418 44.248 81.0116 43.8064 82.1636 42.9232C83.3156 42.0016 83.8916 40.6192 83.8916 38.776V36.5296C83.8916 34.6864 83.3156 33.304 82.1636 32.3824C81.0116 31.4608 79.418 31 77.3828 31H69.0884V44.248H77.3828Z" fill="#BCD98C"/>
<rect x="2.20005" y="1.4" width="56.7" height="88.2" rx="17.55" fill="#038041"/>
<rect x="2.20005" y="1.4" width="56.7" height="88.2" rx="17.55" stroke="white" stroke-width="2.7"/>
<path d="M40.9869 67L37.5885 55.5376H23.4765L20.0781 67H15.0669L27.3933 26.7952H33.7869L46.1133 67H40.9869ZM30.7917 31.9216H30.2733L24.6285 51.3328H36.4365L30.7917 31.9216Z" fill="white"/>
<rect width="54" height="76.5" transform="translate(103.45 7.25)" fill="#FDCA02"/>
<path d="M131.786 67.6912C126.871 67.6912 123.204 65.9056 120.784 62.3344C118.404 58.7632 117.213 53.6176 117.213 46.8976C117.213 40.1776 118.404 35.032 120.784 31.4608C123.204 27.8896 126.871 26.104 131.786 26.104C133.629 26.104 135.223 26.3536 136.567 26.8528C137.911 27.352 139.063 28.024 140.023 28.8688C140.983 29.7136 141.789 30.6736 142.442 31.7488C143.095 32.7856 143.671 33.8416 144.17 34.9168L140.023 36.8176C139.677 35.9344 139.274 35.1088 138.813 34.3408C138.352 33.5344 137.796 32.8432 137.143 32.2672C136.528 31.6528 135.78 31.1728 134.896 30.8272C134.052 30.4816 133.015 30.3088 131.786 30.3088C128.599 30.3088 126.218 31.5184 124.644 33.9376C123.108 36.3568 122.34 39.5824 122.34 43.6144V50.1808C122.34 54.2128 123.108 57.4384 124.644 59.8576C126.218 62.2768 128.599 63.4864 131.786 63.4864C133.015 63.4864 134.052 63.3136 134.896 62.968C135.78 62.6224 136.528 62.1616 137.143 61.5856C137.796 60.9712 138.352 60.28 138.813 59.512C139.274 58.7056 139.677 57.8608 140.023 56.9776L144.17 58.8784C143.671 59.992 143.095 61.0672 142.442 62.104C141.789 63.1408 140.983 64.0816 140.023 64.9264C139.063 65.7712 137.911 66.4432 136.567 66.9424C135.223 67.4416 133.629 67.6912 131.786 67.6912Z" fill="#FEE273"/>
<rect width="54" height="76.5" transform="translate(157.45 7.25)" fill="#EE8100"/>
<path d="M172.653 26.7952H183.885C188.8 26.7952 192.468 28.4848 194.887 31.864C197.306 35.2432 198.516 40.2544 198.516 46.8976C198.516 53.5408 197.306 58.552 194.887 61.9312C192.468 65.3104 188.8 67 183.885 67H172.653V26.7952ZM183.655 62.7952C186.88 62.7952 189.3 61.6816 190.912 59.4544C192.564 57.2272 193.389 54.0784 193.389 50.008V43.7872C193.389 39.7168 192.564 36.568 190.912 34.3408C189.3 32.1136 186.88 31 183.655 31H177.492V62.7952H183.655Z" fill="#F6B972"/>
<path d="M211.45 7.25H254.65C260.615 7.25 265.45 12.0853 265.45 18.05V72.95C265.45 78.9147 260.615 83.75 254.65 83.75H211.45V7.25Z" fill="#E43E11"/>
<path d="M226.365 67V26.7952H251.133V31H231.204V44.536H250.442V48.7408H231.204V62.7952H251.133V67H226.365Z" fill="#F1947B"/>
</svg>
