<svg width="260" height="91" viewBox="0 0 260 91" fill="none" xmlns="http://www.w3.org/2000/svg">
<path d="M0.399902 18.05C0.399902 12.0853 5.23523 7.25 11.1999 7.25H54.3999V83.75H11.1999C5.23523 83.75 0.399902 78.9147 0.399902 72.95V18.05Z" fill="#038041"/>
<path d="M37.8368 67L34.4384 55.5376H20.3264L16.928 67H11.9168L24.2432 26.7952H30.6368L42.9632 67H37.8368ZM27.6416 31.9216H27.1232L21.4784 51.3328H33.2864L27.6416 31.9216Z" fill="#74B996"/>
<rect width="54" height="76.5" transform="translate(97.6001 7.25)" fill="#FDCA02"/>
<path d="M125.936 67.6912C121.021 67.6912 117.354 65.9056 114.935 62.3344C112.554 58.7632 111.363 53.6176 111.363 46.8976C111.363 40.1776 112.554 35.032 114.935 31.4608C117.354 27.8896 121.021 26.104 125.936 26.104C127.779 26.104 129.373 26.3536 130.717 26.8528C132.061 27.352 133.213 28.024 134.173 28.8688C135.133 29.7136 135.939 30.6736 136.592 31.7488C137.245 32.7856 137.821 33.8416 138.32 34.9168L134.173 36.8176C133.827 35.9344 133.424 35.1088 132.963 34.3408C132.503 33.5344 131.946 32.8432 131.293 32.2672C130.679 31.6528 129.93 31.1728 129.047 30.8272C128.202 30.4816 127.165 30.3088 125.936 30.3088C122.749 30.3088 120.368 31.5184 118.794 33.9376C117.258 36.3568 116.49 39.5824 116.49 43.6144V50.1808C116.49 54.2128 117.258 57.4384 118.794 59.8576C120.368 62.2768 122.749 63.4864 125.936 63.4864C127.165 63.4864 128.202 63.3136 129.047 62.968C129.93 62.6224 130.679 62.1616 131.293 61.5856C131.946 60.9712 132.503 60.28 132.963 59.512C133.424 58.7056 133.827 57.8608 134.173 56.9776L138.32 58.8784C137.821 59.992 137.245 61.0672 136.592 62.104C135.939 63.1408 135.133 64.0816 134.173 64.9264C133.213 65.7712 132.061 66.4432 130.717 66.9424C129.373 67.4416 127.779 67.6912 125.936 67.6912Z" fill="#FEE273"/>
<rect x="47.65" y="1.4" width="56.7" height="88.2" rx="17.55" fill="#85BB2F"/>
<rect x="47.65" y="1.4" width="56.7" height="88.2" rx="17.55" stroke="white" stroke-width="2.7"/>
<path d="M63.8001 26.7952H77.4513C80.9073 26.7952 83.6145 27.736 85.5729 29.6176C87.5313 31.4992 88.5105 34.0144 88.5105 37.1632C88.5105 39.5824 87.9153 41.4832 86.7249 42.8656C85.5729 44.248 84.0753 45.2272 82.2321 45.8032V45.976C84.4977 46.5136 86.3601 47.5312 87.8192 49.0288C89.2785 50.488 90.0081 52.6192 90.0081 55.4224C90.0081 57.0352 89.7393 58.552 89.2017 59.9728C88.6641 61.3936 87.8961 62.6224 86.8977 63.6592C85.9377 64.696 84.7857 65.5216 83.4417 66.136C82.1361 66.712 80.7153 67 79.1793 67H63.8001V26.7952ZM77.7393 62.7952C79.9665 62.7952 81.7137 62.296 82.9809 61.2976C84.2481 60.2992 84.8817 58.7632 84.8817 56.6896V54.328C84.8817 52.2928 84.2481 50.776 82.9809 49.7776C81.7137 48.7408 79.9665 48.2224 77.7393 48.2224H68.6385V62.7952H77.7393ZM76.9329 44.248C78.9681 44.248 80.5617 43.8064 81.7137 42.9232C82.8657 42.0016 83.4417 40.6192 83.4417 38.776V36.5296C83.4417 34.6864 82.8657 33.304 81.7137 32.3824C80.5617 31.4608 78.9681 31 76.9329 31H68.6385V44.248H76.9329Z" fill="white"/>
<rect width="54" height="76.5" transform="translate(151.6 7.25)" fill="#EE8100"/>
<path d="M166.803 26.7952H178.035C182.951 26.7952 186.618 28.4848 189.037 31.864C191.456 35.2432 192.666 40.2544 192.666 46.8976C192.666 53.5408 191.456 58.552 189.037 61.9312C186.618 65.3104 182.951 67 178.035 67H166.803V26.7952ZM177.805 62.7952C181.031 62.7952 183.45 61.6816 185.063 59.4544C186.714 57.2272 187.539 54.0784 187.539 50.008V43.7872C187.539 39.7168 186.714 36.568 185.063 34.3408C183.45 32.1136 181.031 31 177.805 31H171.642V62.7952H177.805Z" fill="#F6B972"/>
<path d="M205.6 7.25H248.8C254.765 7.25 259.6 12.0853 259.6 18.05V72.95C259.6 78.9147 254.765 83.75 248.8 83.75H205.6V7.25Z" fill="#E43E11"/>
<path d="M220.515 67V26.7952H245.283V31H225.354V44.536H244.592V48.7408H225.354V62.7952H245.283V67H220.515Z" fill="#F1947B"/>
</svg>
