<svg width="260" height="91" viewBox="0 0 260 91" fill="none" xmlns="http://www.w3.org/2000/svg">
<path d="M0.399902 18.05C0.399902 12.0853 5.23523 7.25 11.1999 7.25H54.3999V83.75H11.1999C5.23523 83.75 0.399902 78.9147 0.399902 72.95V18.05Z" fill="#038041"/>
<path d="M37.8368 67L34.4384 55.5376H20.3264L16.928 67H11.9168L24.2432 26.7952H30.6368L42.9632 67H37.8368ZM27.6416 31.9216H27.1232L21.4784 51.3328H33.2864L27.6416 31.9216Z" fill="#74B996"/>
<rect width="54" height="76.5" transform="translate(54.3999 7.25)" fill="#85BB2F"/>
<path d="M69.2 26.7952H82.8512C86.3072 26.7952 89.0144 27.736 90.9728 29.6176C92.9312 31.4992 93.9104 34.0144 93.9104 37.1632C93.9104 39.5824 93.3152 41.4832 92.1248 42.8656C90.9728 44.248 89.4752 45.2272 87.632 45.8032V45.976C89.8976 46.5136 91.76 47.5312 93.2192 49.0288C94.6784 50.488 95.408 52.6192 95.408 55.4224C95.408 57.0352 95.1392 58.552 94.6016 59.9728C94.064 61.3936 93.296 62.6224 92.2976 63.6592C91.3376 64.696 90.1856 65.5216 88.8416 66.136C87.536 66.712 86.1152 67 84.5792 67H69.2V26.7952ZM83.1392 62.7952C85.3664 62.7952 87.1136 62.296 88.3808 61.2976C89.648 60.2992 90.2816 58.7632 90.2816 56.6896V54.328C90.2816 52.2928 89.648 50.776 88.3808 49.7776C87.1136 48.7408 85.3664 48.2224 83.1392 48.2224H74.0384V62.7952H83.1392ZM82.3328 44.248C84.368 44.248 85.9616 43.8064 87.1136 42.9232C88.2656 42.0016 88.8416 40.6192 88.8416 38.776V36.5296C88.8416 34.6864 88.2656 33.304 87.1136 32.3824C85.9616 31.4608 84.368 31 82.3328 31H74.0384V44.248H82.3328Z" fill="#BCD98C"/>
<rect width="54" height="76.5" transform="translate(108.4 7.25)" fill="#FDCA02"/>
<path d="M136.736 67.6912C131.821 67.6912 128.154 65.9056 125.734 62.3344C123.354 58.7632 122.163 53.6176 122.163 46.8976C122.163 40.1776 123.354 35.032 125.734 31.4608C128.154 27.8896 131.821 26.104 136.736 26.104C138.579 26.104 140.173 26.3536 141.517 26.8528C142.861 27.352 144.013 28.024 144.973 28.8688C145.933 29.7136 146.739 30.6736 147.392 31.7488C148.045 32.7856 148.621 33.8416 149.12 34.9168L144.973 36.8176C144.627 35.9344 144.224 35.1088 143.763 34.3408C143.302 33.5344 142.746 32.8432 142.093 32.2672C141.478 31.6528 140.73 31.1728 139.846 30.8272C139.002 30.4816 137.965 30.3088 136.736 30.3088C133.549 30.3088 131.168 31.5184 129.594 33.9376C128.058 36.3568 127.29 39.5824 127.29 43.6144V50.1808C127.29 54.2128 128.058 57.4384 129.594 59.8576C131.168 62.2768 133.549 63.4864 136.736 63.4864C137.965 63.4864 139.002 63.3136 139.846 62.968C140.73 62.6224 141.478 62.1616 142.093 61.5856C142.746 60.9712 143.302 60.28 143.763 59.512C144.224 58.7056 144.627 57.8608 144.973 56.9776L149.12 58.8784C148.621 59.992 148.045 61.0672 147.392 62.104C146.739 63.1408 145.933 64.0816 144.973 64.9264C144.013 65.7712 142.861 66.4432 141.517 66.9424C140.173 67.4416 138.579 67.6912 136.736 67.6912Z" fill="#FEE273"/>
<path d="M205.6 7.25H248.8C254.765 7.25 259.6 12.0853 259.6 18.05V72.95C259.6 78.9147 254.765 83.75 248.8 83.75H205.6V7.25Z" fill="#E43E11"/>
<path d="M220.515 67V26.7952H245.283V31H225.354V44.536H244.592V48.7408H225.354V62.7952H245.283V67H220.515Z" fill="#F1947B"/>
<rect x="155.65" y="1.4" width="56.7" height="88.2" rx="17.55" fill="#E57D00"/>
<rect x="155.65" y="1.4" width="56.7" height="88.2" rx="17.55" stroke="white" stroke-width="2.7"/>
<path d="M172.203 26.7952H183.435C188.35 26.7952 192.018 28.4848 194.437 31.864C196.856 35.2432 198.066 40.2544 198.066 46.8976C198.066 53.5408 196.856 58.552 194.437 61.9312C192.018 65.3104 188.35 67 183.435 67H172.203V26.7952ZM183.205 62.7952C186.43 62.7952 188.85 61.6816 190.462 59.4544C192.114 57.2272 192.939 54.0784 192.939 50.008V43.7872C192.939 39.7168 192.114 36.568 190.462 34.3408C188.85 32.1136 186.43 31 183.205 31H177.042V62.7952H183.205Z" fill="white"/>
</svg>
