<svg width="260" height="91" viewBox="0 0 260 91" fill="none" xmlns="http://www.w3.org/2000/svg">
<path d="M0.399902 18.05C0.399902 12.0853 5.23523 7.25 11.1999 7.25H54.3999V83.75H11.1999C5.23523 83.75 0.399902 78.9147 0.399902 72.95V18.05Z" fill="#038041"/>
<path d="M37.8368 67L34.4384 55.5376H20.3264L16.928 67H11.9168L24.2432 26.7952H30.6368L42.9632 67H37.8368ZM27.6416 31.9216H27.1232L21.4784 51.3328H33.2864L27.6416 31.9216Z" fill="#74B996"/>
<rect width="54" height="76.5" transform="translate(151.6 7.25)" fill="#EE8100"/>
<path d="M166.803 26.7952H178.035C182.951 26.7952 186.618 28.4848 189.037 31.864C191.456 35.2432 192.666 40.2544 192.666 46.8976C192.666 53.5408 191.456 58.552 189.037 61.9312C186.618 65.3104 182.951 67 178.035 67H166.803V26.7952ZM177.805 62.7952C181.031 62.7952 183.45 61.6816 185.063 59.4544C186.714 57.2272 187.539 54.0784 187.539 50.008V43.7872C187.539 39.7168 186.714 36.568 185.063 34.3408C183.45 32.1136 181.031 31 177.805 31H171.642V62.7952H177.805Z" fill="#F6B972"/>
<rect width="54" height="76.5" transform="translate(54.3999 7.25)" fill="#85BB2F"/>
<path d="M69.2 26.7952H82.8512C86.3072 26.7952 89.0144 27.736 90.9728 29.6176C92.9312 31.4992 93.9104 34.0144 93.9104 37.1632C93.9104 39.5824 93.3152 41.4832 92.1248 42.8656C90.9728 44.248 89.4752 45.2272 87.632 45.8032V45.976C89.8976 46.5136 91.76 47.5312 93.2192 49.0288C94.6784 50.488 95.408 52.6192 95.408 55.4224C95.408 57.0352 95.1392 58.552 94.6016 59.9728C94.064 61.3936 93.296 62.6224 92.2976 63.6592C91.3376 64.696 90.1856 65.5216 88.8416 66.136C87.536 66.712 86.1152 67 84.5792 67H69.2V26.7952ZM83.1392 62.7952C85.3664 62.7952 87.1136 62.296 88.3808 61.2976C89.648 60.2992 90.2816 58.7632 90.2816 56.6896V54.328C90.2816 52.2928 89.648 50.776 88.3808 49.7776C87.1136 48.7408 85.3664 48.2224 83.1392 48.2224H74.0384V62.7952H83.1392ZM82.3328 44.248C84.368 44.248 85.9616 43.8064 87.1136 42.9232C88.2656 42.0016 88.8416 40.6192 88.8416 38.776V36.5296C88.8416 34.6864 88.2656 33.304 87.1136 32.3824C85.9616 31.4608 84.368 31 82.3328 31H74.0384V44.248H82.3328Z" fill="#BCD98C"/>
<rect x="101.65" y="1.4" width="56.7" height="88.2" rx="17.55" fill="#FDCA02"/>
<rect x="101.65" y="1.4" width="56.7" height="88.2" rx="17.55" stroke="white" stroke-width="2.7"/>
<path d="M131.336 67.6912C126.421 67.6912 122.754 65.9056 120.334 62.3344C117.954 58.7632 116.763 53.6176 116.763 46.8976C116.763 40.1776 117.954 35.032 120.334 31.4608C122.754 27.8896 126.421 26.104 131.336 26.104C133.179 26.104 134.773 26.3536 136.117 26.8528C137.461 27.352 138.613 28.024 139.573 28.8688C140.533 29.7136 141.339 30.6736 141.992 31.7488C142.645 32.7856 143.221 33.8416 143.72 34.9168L139.573 36.8176C139.227 35.9344 138.824 35.1088 138.363 34.3408C137.902 33.5344 137.346 32.8432 136.693 32.2672C136.078 31.6528 135.33 31.1728 134.446 30.8272C133.602 30.4816 132.565 30.3088 131.336 30.3088C128.149 30.3088 125.768 31.5184 124.194 33.9376C122.658 36.3568 121.89 39.5824 121.89 43.6144V50.1808C121.89 54.2128 122.658 57.4384 124.194 59.8576C125.768 62.2768 128.149 63.4864 131.336 63.4864C132.565 63.4864 133.602 63.3136 134.446 62.968C135.33 62.6224 136.078 62.1616 136.693 61.5856C137.346 60.9712 137.902 60.28 138.363 59.512C138.824 58.7056 139.227 57.8608 139.573 56.9776L143.72 58.8784C143.221 59.992 142.645 61.0672 141.992 62.104C141.339 63.1408 140.533 64.0816 139.573 64.9264C138.613 65.7712 137.461 66.4432 136.117 66.9424C134.773 67.4416 133.179 67.6912 131.336 67.6912Z" fill="white"/>
<path d="M205.6 7.25H248.8C254.765 7.25 259.6 12.0853 259.6 18.05V72.95C259.6 78.9147 254.765 83.75 248.8 83.75H205.6V7.25Z" fill="#E43E11"/>
<path d="M220.515 67V26.7952H245.283V31H225.354V44.536H244.592V48.7408H225.354V62.7952H245.283V67H220.515Z" fill="#F1947B"/>
</svg>
