<svg width="49" height="49" viewBox="0 0 49 49" fill="none" xmlns="http://www.w3.org/2000/svg">
<rect x="0.5" y="0.5" width="48" height="48" rx="24" fill="#D9D9D9" fill-opacity="0.3"/>
<path d="M27.2777 19.4999H27.2888M24.4999 33.9443H17.2777C16.3936 33.9443 15.5458 33.5931 14.9206 32.968C14.2955 32.3429 13.9443 31.4951 13.9443 30.611V17.2777C13.9443 16.3936 14.2955 15.5458 14.9206 14.9206C15.5458 14.2955 16.3936 13.9443 17.2777 13.9443H30.611C31.4951 13.9443 32.3429 14.2955 32.968 14.9206C33.5931 15.5458 33.9443 16.3936 33.9443 17.2777V24.4999" stroke="white" stroke-width="2.22222" stroke-linecap="round" stroke-linejoin="round"/>
<path d="M13.9443 28.3888L19.4999 22.8333C20.531 21.8411 21.8021 21.8411 22.8332 22.8333L26.7221 26.7222" stroke="white" stroke-width="2.22222" stroke-linecap="round" stroke-linejoin="round"/>
<path d="M26.1665 26.1664L27.2776 25.0553C28.0321 24.3297 28.9143 24.1342 29.7376 24.4708M31.7221 35.0553V28.3886M31.7221 28.3886L35.0554 31.7219M31.7221 28.3886L28.3887 31.7219" stroke="white" stroke-width="2.22222" stroke-linecap="round" stroke-linejoin="round"/>
</svg>
