<svg width="19" height="20" viewBox="0 0 19 20" fill="none" xmlns="http://www.w3.org/2000/svg">
<path d="M18.001 0.624512H13.501C13.302 0.624512 13.1113 0.703529 12.9706 0.844182C12.83 0.984834 12.751 1.1756 12.751 1.37451C12.751 1.57342 12.83 1.76419 12.9706 1.90484C13.1113 2.04549 13.302 2.12451 13.501 2.12451H16.1906L12.2466 6.06857C10.7568 4.85083 8.856 4.25224 6.93728 4.39661C5.01856 4.54098 3.22871 5.41726 1.93794 6.84422C0.647158 8.27118 -0.0458108 10.1397 0.00235239 12.0632C0.0505156 13.9867 0.836127 15.8182 2.1967 17.1788C3.55728 18.5393 5.38873 19.325 7.31227 19.3731C9.23581 19.4213 11.1043 18.7283 12.5312 17.4375C13.9582 16.1468 14.8345 14.3569 14.9789 12.4382C15.1232 10.5195 14.5246 8.61866 13.3069 7.12889L17.251 3.18576V5.87451C17.251 6.07342 17.33 6.26419 17.4706 6.40484C17.6113 6.54549 17.802 6.62451 18.001 6.62451C18.1999 6.62451 18.3906 6.54549 18.5313 6.40484C18.6719 6.26419 18.751 6.07342 18.751 5.87451V1.37451C18.751 1.1756 18.6719 0.984834 18.5313 0.844182C18.3906 0.703529 18.1999 0.624512 18.001 0.624512ZM11.7422 16.1204C10.903 16.9593 9.83388 17.5305 8.67007 17.7618C7.50626 17.9931 6.3 17.8741 5.2038 17.4199C4.1076 16.9657 3.17068 16.1966 2.51151 15.21C1.85234 14.2234 1.50052 13.0634 1.50052 11.8769C1.50052 10.6903 1.85234 9.53035 2.51151 8.54371C3.17068 7.55708 4.1076 6.78804 5.2038 6.33384C6.3 5.87963 7.50626 5.76065 8.67007 5.99195C9.83388 6.22324 10.903 6.79442 11.7422 7.63326C12.8657 8.75977 13.4966 10.2858 13.4966 11.8769C13.4966 13.4679 12.8657 14.9939 11.7422 16.1204Z" fill="#090909"/>
</svg>
